<svg width="230" height="60" viewBox="0 0 230 60" fill="none" xmlns="http://www.w3.org/2000/svg">
<path fill-rule="evenodd" clip-rule="evenodd" d="M26.8743 0.194658L26.7032 0.148438L0 7.33776L7.18933 45.7664L26.7032 59.2036L26.8743 59.0847V54.5468L26.7031 54.6674L10.6983 43.4554L4.36483 10.162L26.7031 3.99973L26.8743 4.04715V0.194658Z" fill="#888888"/>
<path fill-rule="evenodd" clip-rule="evenodd" d="M26.8747 7.16657L26.8745 7.1665L7.3606 12.3017L12.9238 42.3428L26.8745 52.0142L26.8747 52.014V7.16657Z" fill="url(#paint0_linear_59_1102)"/>
<path fill-rule="evenodd" clip-rule="evenodd" d="M26.8746 0.194619L27.0456 0.148438L53.7488 7.33776L46.5595 45.7664L27.0456 59.2036L26.8746 59.0848V54.5475L27.0454 54.6679L43.0503 43.4559L49.3837 10.1625L27.0454 4.00024L26.8746 4.04755V0.194619Z" fill="#D4D4D4"/>
<path fill-rule="evenodd" clip-rule="evenodd" d="M26.8747 7.16699L46.3884 12.3022L40.8253 42.3433L26.8747 52.0145V7.16699Z" fill="url(#paint1_linear_59_1102)"/>
<path d="M75.8642 18.563C77.1799 17.1563 78.961 16.453 81.2076 16.453C83.4541 16.453 85.2317 17.1563 86.5405 18.563C87.8562 19.9698 88.5141 21.8804 88.5141 24.2948C88.5141 26.7023 87.8562 28.6094 86.5405 30.0162C85.2247 31.4229 83.4471 32.1262 81.2076 32.1262C78.961 32.1262 77.1799 31.4229 75.8642 30.0162C74.5555 28.6094 73.9011 26.7023 73.9011 24.2948C73.9011 21.8804 74.5555 19.9698 75.8642 18.563ZM84.168 20.5051C83.4331 19.5673 82.4463 19.0984 81.2076 19.0984C79.9688 19.0984 78.9785 19.5673 78.2367 20.5051C77.5019 21.4429 77.1344 22.7062 77.1344 24.2948C77.1344 25.8765 77.5019 27.1363 78.2367 28.0741C78.9715 29.0049 79.9618 29.4703 81.2076 29.4703C82.4463 29.4703 83.4331 29.0049 84.168 28.0741C84.9028 27.1363 85.2702 25.8765 85.2702 24.2948C85.2702 22.7062 84.9028 21.4429 84.168 20.5051ZM94.8119 31.8638H91.6311V16.7154H101.394V19.3399H94.8119V31.8638ZM117.455 31.8638H114.284V25.4811H107.461V31.8638H104.291V16.7154H107.461V22.8671H114.284V16.7154H117.455V31.8638ZM131.08 29.2393V31.8638H121.044V16.7154H131.08V19.3294H124.215V22.9826H130.692V25.4181H124.215V29.2393H131.08ZM137.766 25.3551V22.8881H139.772C140.527 22.8881 141.14 22.6957 141.609 22.3108C142.085 21.9258 142.322 21.4219 142.322 20.7991C142.322 20.1762 142.099 19.6863 141.651 19.3294C141.203 18.9725 140.59 18.794 139.813 18.794C139.03 18.794 138.396 18.99 137.913 19.3819C137.43 19.7738 137.168 20.3022 137.126 20.967H134.197C134.246 19.5393 134.782 18.4091 135.803 17.5762C136.832 16.7434 138.197 16.327 139.897 16.327C141.521 16.327 142.833 16.7084 143.834 17.4713C144.842 18.2271 145.346 19.2139 145.346 20.4317C145.346 21.2855 145.083 22.0308 144.559 22.6677C144.034 23.3046 143.344 23.714 142.49 23.8959V23.9799C143.512 24.0919 144.324 24.4838 144.926 25.1557C145.528 25.8205 145.829 26.6604 145.829 27.6751C145.829 29.0049 145.262 30.1001 144.128 30.961C143.001 31.8218 141.567 32.2522 139.824 32.2522C138.088 32.2522 136.678 31.8253 135.593 30.9715C134.509 30.1106 133.931 28.9734 133.861 27.5597H136.895C136.944 28.2105 137.235 28.7284 137.766 29.1133C138.298 29.4983 138.995 29.6907 139.855 29.6907C140.667 29.6907 141.322 29.4878 141.819 29.0818C142.322 28.6689 142.574 28.13 142.574 27.4652C142.574 26.8073 142.329 26.2929 141.84 25.922C141.35 25.5441 140.671 25.3551 139.803 25.3551H137.766ZM158.467 31.8638L157.313 28.1895H151.99L150.835 31.8638H147.581L152.84 16.7154H156.567L161.837 31.8638H158.467ZM154.615 19.6128L152.672 25.817H156.63L154.688 19.6128H154.615ZM184.469 34.8556H181.604V31.8638H164.461V16.7154H167.631V29.2498H171.935V16.7154H175.105V29.2498H179.41V16.7154H182.58V29.2498H184.469V34.8556ZM197.171 31.8638V21.6179H197.045L190.169 31.8638H187.114V16.7154H190.274V26.9718H190.4L197.276 16.7154H200.331V31.8638H197.171ZM210.723 31.8638H207.552V19.3294H203.175V16.7154H215.111V19.3294H210.723V31.8638ZM226.175 31.8638L225.02 28.1895H219.698L218.543 31.8638H215.289L220.548 16.7154H224.275L229.545 31.8638H226.175ZM222.322 19.6128L220.38 25.817H224.338L222.396 19.6128H222.322Z" fill="#262626"/>
<path d="M85.1907 48.9382H84.3388V47.7539H79.5809V41.7577H80.5117V46.9519H83.5119V41.7577H84.4427V46.9519H85.1907V48.9382ZM89.3795 44.3423C89.1828 44.1318 88.9293 44.0265 88.6191 44.0265C88.3088 44.0265 88.0512 44.1332 87.8462 44.3465C87.6412 44.557 87.5276 44.8299 87.5054 45.1651H89.6911C89.6801 44.8271 89.5762 44.5529 89.3795 44.3423ZM89.687 46.4699H90.5388C90.4751 46.8716 90.2701 47.1999 89.9238 47.4547C89.5776 47.7096 89.1551 47.837 88.6565 47.837C88.0165 47.837 87.5123 47.6362 87.1439 47.2345C86.7782 46.83 86.5954 46.2815 86.5954 45.589C86.5954 44.9019 86.7782 44.3493 87.1439 43.931C87.5123 43.5126 88.0041 43.3035 88.6191 43.3035C89.223 43.3035 89.7022 43.5016 90.0568 43.8977C90.4114 44.2911 90.5887 44.8202 90.5887 45.4851V45.7926H87.5013V45.8466C87.5013 46.2289 87.6079 46.535 87.8212 46.7649C88.0345 46.9949 88.3199 47.1098 88.6772 47.1098C88.9293 47.1098 89.1454 47.0516 89.3255 46.9353C89.5055 46.8189 89.626 46.6638 89.687 46.4699ZM95.1224 47.7539V45.8507H93.1444V47.7539H92.251V43.3824H93.1444V45.1443H95.1224V43.3824H96.0158V47.7539H95.1224ZM101.206 43.3824V44.093H99.8348V47.7539H98.9414V44.093H97.5701V43.3824H101.206ZM105.037 43.3118C105.594 43.3118 106.04 43.5154 106.376 43.9226C106.711 44.3299 106.878 44.8784 106.878 45.5682C106.878 46.258 106.712 46.8079 106.38 47.2179C106.047 47.6251 105.605 47.8287 105.054 47.8287C104.744 47.8287 104.468 47.7581 104.227 47.6168C103.989 47.4755 103.806 47.2816 103.679 47.035H103.658V49.2H102.76V43.3824H103.629V44.1346H103.645C103.776 43.8797 103.963 43.6789 104.206 43.532C104.45 43.3852 104.727 43.3118 105.037 43.3118ZM104.801 47.0683C105.155 47.0683 105.436 46.9339 105.644 46.6652C105.852 46.3937 105.956 46.028 105.956 45.5682C105.956 45.1111 105.852 44.7468 105.644 44.4753C105.436 44.2038 105.155 44.0681 104.801 44.0681C104.457 44.0681 104.18 44.2052 103.97 44.4795C103.759 44.7537 103.654 45.1166 103.654 45.5682C103.654 46.0225 103.758 46.3868 103.965 46.661C104.176 46.9325 104.454 47.0683 104.801 47.0683ZM113.997 47.7539V44.093H112.06V47.7539H111.167V43.3824H114.894V47.7539H113.997ZM120.147 47.2303C119.77 47.6348 119.267 47.837 118.639 47.837C118.01 47.837 117.507 47.6348 117.13 47.2303C116.753 46.8231 116.565 46.269 116.565 45.5682C116.565 44.8701 116.753 44.3188 117.13 43.9143C117.507 43.5071 118.01 43.3035 118.639 43.3035C119.267 43.3035 119.77 43.5071 120.147 43.9143C120.524 44.3188 120.712 44.8701 120.712 45.5682C120.712 46.269 120.524 46.8231 120.147 47.2303ZM118.639 47.0974C118.996 47.0974 119.278 46.963 119.486 46.6943C119.694 46.4256 119.798 46.0502 119.798 45.5682C119.798 45.0889 119.693 44.7149 119.482 44.4462C119.274 44.1775 118.993 44.0431 118.639 44.0431C118.284 44.0431 118.001 44.1775 117.791 44.4462C117.583 44.7149 117.479 45.0889 117.479 45.5682C117.479 46.0502 117.583 46.4256 117.791 46.6943C118.001 46.963 118.284 47.0974 118.639 47.0974ZM126.276 45.4352L128.142 47.7539H127.028L125.42 45.7385H125.387V47.7539H124.502V45.7385H124.473L122.865 47.7539H121.768L123.621 45.4518L121.818 43.3824H122.886L124.473 45.2524H124.502V43.3824H125.387V45.2524H125.42L127.008 43.3824H128.067L126.276 45.4352ZM130.98 47.1181C131.296 47.1181 131.561 47.0226 131.774 46.8314C131.99 46.6375 132.098 46.3993 132.098 46.1167V45.7718L131.022 45.8383C130.753 45.8577 130.545 45.9242 130.399 46.0377C130.255 46.1485 130.183 46.2981 130.183 46.4865C130.183 46.6777 130.255 46.8314 130.399 46.9478C130.545 47.0613 130.739 47.1181 130.98 47.1181ZM130.731 47.8287C130.302 47.8287 129.951 47.7068 129.68 47.463C129.411 47.2192 129.277 46.9021 129.277 46.5114C129.277 46.1292 129.418 45.8258 129.701 45.6014C129.983 45.3743 130.383 45.2468 130.901 45.2191L132.098 45.1485V44.8119C132.098 44.5681 132.021 44.3783 131.865 44.2426C131.71 44.1041 131.496 44.0348 131.221 44.0348C130.967 44.0348 130.759 44.0916 130.598 44.2052C130.44 44.3188 130.34 44.4753 130.299 44.6748H129.451C129.476 44.2703 129.651 43.9406 129.975 43.6858C130.299 43.4309 130.726 43.3035 131.255 43.3035C131.784 43.3035 132.205 43.4337 132.518 43.6941C132.834 43.9545 132.992 44.3036 132.992 44.7413V47.7539H132.131V47.035H132.111C131.986 47.276 131.796 47.4686 131.541 47.6126C131.289 47.7567 131.019 47.8287 130.731 47.8287ZM137.11 43.3118C137.667 43.3118 138.113 43.5154 138.448 43.9226C138.783 44.3299 138.951 44.8784 138.951 45.5682C138.951 46.258 138.784 46.8079 138.452 47.2179C138.119 47.6251 137.678 47.8287 137.126 47.8287C136.816 47.8287 136.54 47.7581 136.299 47.6168C136.061 47.4755 135.878 47.2816 135.751 47.035H135.73V49.2H134.833V43.3824H135.701V44.1346H135.718C135.848 43.8797 136.035 43.6789 136.279 43.532C136.522 43.3852 136.799 43.3118 137.11 43.3118ZM136.873 47.0683C137.227 47.0683 137.509 46.9339 137.716 46.6652C137.924 46.3937 138.028 46.028 138.028 45.5682C138.028 45.1111 137.924 44.7468 137.716 44.4753C137.509 44.2038 137.227 44.0681 136.873 44.0681C136.529 44.0681 136.252 44.2052 136.042 44.4795C135.831 44.7537 135.726 45.1166 135.726 45.5682C135.726 46.0225 135.83 46.3868 136.038 46.661C136.248 46.9325 136.527 47.0683 136.873 47.0683ZM143.488 47.7539V45.8507H141.51V47.7539H140.617V43.3824H141.51V45.1443H143.488V43.3824H144.382V47.7539H143.488ZM149.639 47.2303C149.262 47.6348 148.759 47.837 148.13 47.837C147.501 47.837 146.998 47.6348 146.622 47.2303C146.245 46.8231 146.057 46.269 146.057 45.5682C146.057 44.8701 146.245 44.3188 146.622 43.9143C146.998 43.5071 147.501 43.3035 148.13 43.3035C148.759 43.3035 149.262 43.5071 149.639 43.9143C150.015 44.3188 150.204 44.8701 150.204 45.5682C150.204 46.269 150.015 46.8231 149.639 47.2303ZM148.13 47.0974C148.488 47.0974 148.77 46.963 148.978 46.6943C149.186 46.4256 149.289 46.0502 149.289 45.5682C149.289 45.0889 149.184 44.7149 148.974 44.4462C148.766 44.1775 148.485 44.0431 148.13 44.0431C147.776 44.0431 147.493 44.1775 147.282 44.4462C147.075 44.7149 146.971 45.0889 146.971 45.5682C146.971 46.0502 147.075 46.4256 147.282 46.6943C147.493 46.963 147.776 47.0974 148.13 47.0974ZM152.755 47.7539H151.87V43.3824H152.755V46.445H152.788L154.808 43.3824H155.693V47.7539H154.808V44.6831H154.775L152.755 47.7539ZM152.464 41.4627H153.071C153.074 41.7009 153.146 41.899 153.287 42.0569C153.428 42.212 153.614 42.2896 153.844 42.2896C154.077 42.2896 154.264 42.212 154.405 42.0569C154.546 41.899 154.618 41.7009 154.621 41.4627H155.228C155.228 41.856 155.1 42.1746 154.845 42.4184C154.591 42.6594 154.257 42.7799 153.844 42.7799C153.434 42.7799 153.102 42.6594 152.847 42.4184C152.592 42.1746 152.464 41.856 152.464 41.4627ZM162.122 47.837C161.435 47.837 160.911 47.6154 160.551 47.1722C160.194 46.7289 160.015 46.0765 160.015 45.215C160.015 44.4033 160.097 43.7481 160.26 43.2495C160.426 42.7481 160.681 42.3768 161.025 42.1358C161.371 41.8948 161.824 41.7646 162.384 41.7452L162.774 41.7328C163.314 41.7078 163.695 41.6358 163.917 41.5167V42.2605C163.859 42.3159 163.727 42.3658 163.522 42.4101C163.317 42.4544 163.084 42.4821 162.824 42.4932L162.442 42.5057C162.151 42.5167 161.906 42.5583 161.706 42.6303C161.51 42.6996 161.346 42.8104 161.216 42.9627C161.086 43.1123 160.985 43.2938 160.913 43.5071C160.841 43.7176 160.784 43.9836 160.742 44.3049H160.775C160.914 44.0473 161.111 43.8506 161.366 43.7149C161.623 43.5764 161.924 43.5071 162.267 43.5071C162.857 43.5071 163.327 43.6983 163.676 44.0805C164.028 44.4628 164.204 44.9753 164.204 45.618C164.204 46.3051 164.018 46.8466 163.647 47.2428C163.276 47.6389 162.767 47.837 162.122 47.837ZM162.113 47.0849C162.485 47.0849 162.773 46.9588 162.978 46.7067C163.183 46.4519 163.285 46.0931 163.285 45.6305C163.285 45.19 163.183 44.8479 162.978 44.6041C162.773 44.3603 162.485 44.2385 162.113 44.2385C161.74 44.2385 161.449 44.3603 161.241 44.6041C161.036 44.8479 160.933 45.19 160.933 45.6305C160.933 46.0959 161.036 46.4547 161.241 46.7067C161.449 46.9588 161.74 47.0849 162.113 47.0849ZM168.463 44.3423C168.266 44.1318 168.013 44.0265 167.703 44.0265C167.392 44.0265 167.135 44.1332 166.93 44.3465C166.725 44.557 166.611 44.8299 166.589 45.1651H168.775C168.764 44.8271 168.66 44.5529 168.463 44.3423ZM168.771 46.4699H169.622C169.559 46.8716 169.354 47.1999 169.007 47.4547C168.661 47.7096 168.239 47.837 167.74 47.837C167.1 47.837 166.596 47.6362 166.228 47.2345C165.862 46.83 165.679 46.2815 165.679 45.589C165.679 44.9019 165.862 44.3493 166.228 43.931C166.596 43.5126 167.088 43.3035 167.703 43.3035C168.307 43.3035 168.786 43.5016 169.14 43.8977C169.495 44.2911 169.672 44.8202 169.672 45.4851V45.7926H166.585V45.8466C166.585 46.2289 166.692 46.535 166.905 46.7649C167.118 46.9949 167.403 47.1098 167.761 47.1098C168.013 47.1098 168.229 47.0516 168.409 46.9353C168.589 46.8189 168.71 46.6638 168.771 46.4699ZM172.905 47.837C172.393 47.837 171.972 47.7193 171.642 47.4838C171.315 47.2483 171.132 46.9298 171.094 46.5281H171.979C172.023 46.7164 172.126 46.8619 172.286 46.9644C172.447 47.0641 172.653 47.114 172.905 47.114C173.188 47.114 173.407 47.0544 173.562 46.9353C173.72 46.8162 173.799 46.6583 173.799 46.4616C173.799 46.0377 173.502 45.8258 172.91 45.8258H172.27V45.1651H172.897C173.407 45.1651 173.662 44.974 173.662 44.5917C173.662 44.4171 173.598 44.2786 173.47 44.1761C173.343 44.0709 173.156 44.0182 172.91 44.0182C172.669 44.0182 172.472 44.0667 172.319 44.1637C172.167 44.2606 172.076 44.395 172.045 44.5667H171.185C171.232 44.1761 171.408 43.8686 171.713 43.6442C172.02 43.4171 172.418 43.3035 172.905 43.3035C173.426 43.3035 173.828 43.4115 174.11 43.6276C174.396 43.8409 174.538 44.1332 174.538 44.5044C174.538 44.7288 174.475 44.9269 174.347 45.0986C174.22 45.2704 174.051 45.3826 173.84 45.4352V45.4684C174.117 45.5322 174.328 45.6499 174.472 45.8217C174.619 45.9934 174.692 46.2053 174.692 46.4574C174.692 46.873 174.529 47.2068 174.202 47.4589C173.878 47.711 173.446 47.837 172.905 47.837ZM179.766 47.2303C179.389 47.6348 178.887 47.837 178.258 47.837C177.629 47.837 177.126 47.6348 176.749 47.2303C176.373 46.8231 176.184 46.269 176.184 45.5682C176.184 44.8701 176.373 44.3188 176.749 43.9143C177.126 43.5071 177.629 43.3035 178.258 43.3035C178.887 43.3035 179.389 43.5071 179.766 43.9143C180.143 44.3188 180.331 44.8701 180.331 45.5682C180.331 46.269 180.143 46.8231 179.766 47.2303ZM178.258 47.0974C178.615 47.0974 178.898 46.963 179.105 46.6943C179.313 46.4256 179.417 46.0502 179.417 45.5682C179.417 45.0889 179.312 44.7149 179.101 44.4462C178.893 44.1775 178.612 44.0431 178.258 44.0431C177.903 44.0431 177.621 44.1775 177.41 44.4462C177.202 44.7149 177.098 45.0889 177.098 45.5682C177.098 46.0502 177.202 46.4256 177.41 46.6943C177.621 46.963 177.903 47.0974 178.258 47.0974ZM184.827 47.7539V44.093H182.891V47.7539H181.998V43.3824H185.725V47.7539H184.827ZM189.12 47.1181C189.436 47.1181 189.701 47.0226 189.914 46.8314C190.13 46.6375 190.238 46.3993 190.238 46.1167V45.7718L189.162 45.8383C188.893 45.8577 188.685 45.9242 188.538 46.0377C188.394 46.1485 188.322 46.2981 188.322 46.4865C188.322 46.6777 188.394 46.8314 188.538 46.9478C188.685 47.0613 188.879 47.1181 189.12 47.1181ZM188.871 47.8287C188.441 47.8287 188.091 47.7068 187.82 47.463C187.551 47.2192 187.416 46.9021 187.416 46.5114C187.416 46.1292 187.558 45.8258 187.84 45.6014C188.123 45.3743 188.523 45.2468 189.041 45.2191L190.238 45.1485V44.8119C190.238 44.5681 190.16 44.3783 190.005 44.2426C189.85 44.1041 189.635 44.0348 189.361 44.0348C189.106 44.0348 188.899 44.0916 188.738 44.2052C188.58 44.3188 188.48 44.4753 188.439 44.6748H187.591C187.616 44.2703 187.79 43.9406 188.115 43.6858C188.439 43.4309 188.865 43.3035 189.394 43.3035C189.924 43.3035 190.345 43.4337 190.658 43.6941C190.973 43.9545 191.131 44.3036 191.131 44.7413V47.7539H190.271V47.035H190.25C190.126 47.276 189.936 47.4686 189.681 47.6126C189.429 47.7567 189.159 47.8287 188.871 47.8287ZM196.7 44.7828H195.835C195.774 44.5667 195.658 44.3908 195.486 44.2551C195.315 44.1193 195.096 44.0515 194.83 44.0515C194.484 44.0515 194.205 44.19 193.995 44.467C193.787 44.7413 193.683 45.1083 193.683 45.5682C193.683 46.0391 193.787 46.4103 193.995 46.6818C194.205 46.9505 194.486 47.0849 194.838 47.0849C195.101 47.0849 195.319 47.0226 195.491 46.8979C195.662 46.7705 195.78 46.5918 195.844 46.3619H196.708C196.644 46.8051 196.442 47.1625 196.101 47.4339C195.763 47.7027 195.34 47.837 194.83 47.837C194.201 47.837 193.701 47.6334 193.33 47.2262C192.959 46.8189 192.773 46.2663 192.773 45.5682C192.773 44.8812 192.959 44.3326 193.33 43.9226C193.704 43.5099 194.201 43.3035 194.822 43.3035C195.34 43.3035 195.765 43.4448 196.097 43.7273C196.432 44.0071 196.633 44.359 196.7 44.7828ZM201.196 47.7539V45.8507H199.218V47.7539H198.325V43.3824H199.218V45.1443H201.196V43.3824H202.089V47.7539H201.196ZM207.346 47.2303C206.969 47.6348 206.467 47.837 205.838 47.837C205.209 47.837 204.706 47.6348 204.329 47.2303C203.953 46.8231 203.764 46.269 203.764 45.5682C203.764 44.8701 203.953 44.3188 204.329 43.9143C204.706 43.5071 205.209 43.3035 205.838 43.3035C206.467 43.3035 206.969 43.5071 207.346 43.9143C207.723 44.3188 207.911 44.8701 207.911 45.5682C207.911 46.269 207.723 46.8231 207.346 47.2303ZM205.838 47.0974C206.195 47.0974 206.478 46.963 206.685 46.6943C206.893 46.4256 206.997 46.0502 206.997 45.5682C206.997 45.0889 206.892 44.7149 206.681 44.4462C206.474 44.1775 206.192 44.0431 205.838 44.0431C205.483 44.0431 205.201 44.1775 204.99 44.4462C204.782 44.7149 204.678 45.0889 204.678 45.5682C204.678 46.0502 204.782 46.4256 204.99 46.6943C205.201 46.963 205.483 47.0974 205.838 47.0974ZM213.309 44.7828H212.445C212.384 44.5667 212.268 44.3908 212.096 44.2551C211.924 44.1193 211.705 44.0515 211.439 44.0515C211.093 44.0515 210.815 44.19 210.604 44.467C210.396 44.7413 210.293 45.1083 210.293 45.5682C210.293 46.0391 210.396 46.4103 210.604 46.6818C210.815 46.9505 211.096 47.0849 211.448 47.0849C211.711 47.0849 211.928 47.0226 212.1 46.8979C212.272 46.7705 212.39 46.5918 212.453 46.3619H213.318C213.254 46.8051 213.052 47.1625 212.711 47.4339C212.373 47.7027 211.949 47.837 211.439 47.837C210.811 47.837 210.311 47.6334 209.939 47.2262C209.568 46.8189 209.382 46.2663 209.382 45.5682C209.382 44.8812 209.568 44.3326 209.939 43.9226C210.313 43.5099 210.811 43.3035 211.431 43.3035C211.949 43.3035 212.374 43.4448 212.707 43.7273C213.042 44.0071 213.243 44.359 213.309 44.7828ZM218.167 43.3824V44.093H216.796V47.7539H215.902V44.093H214.531V43.3824H218.167ZM220.602 47.7539H219.717V43.3824H220.602V46.445H220.636L222.655 43.3824H223.54V47.7539H222.655V44.6831H222.622L220.602 47.7539Z" fill="#262626"/>
<defs>
<linearGradient id="paint0_linear_59_1102" x1="17.1176" y1="7.1665" x2="17.1176" y2="52.0142" gradientUnits="userSpaceOnUse">
<stop stop-color="#FAE187"/>
<stop offset="1" stop-color="#EC8671"/>
</linearGradient>
<linearGradient id="paint1_linear_59_1102" x1="36.6316" y1="7.16699" x2="36.6316" y2="52.0145" gradientUnits="userSpaceOnUse">
<stop stop-color="#F8D247"/>
<stop offset="1" stop-color="#E24324"/>
</linearGradient>
</defs>
</svg>
